<?xml version="1.0" encoding="UTF-8"?>
<svg width="24px" height="24px" viewBox="0 0 24 24" version="1.1" xmlns="http://www.w3.org/2000/svg" xmlns:xlink="http://www.w3.org/1999/xlink">
    <!-- Generator: Sketch 64 (93537) - https://sketch.com -->
    <title>Fill 1</title>
    <desc>Created with Sketch.</desc>
    <g id="SCP-Search" stroke="none" stroke-width="1" fill="none" fill-rule="evenodd">
        <g id="SCP-COVID-19" transform="translate(-357.000000, -264.000000)" fill="#4D72AA">
            <path d="M374.737365,275.662764 C374.443161,275.662764 374.204618,275.424238 374.204618,275.130016 C374.204618,274.835777 374.443161,274.597251 374.737365,274.597251 C375.031587,274.597251 375.27013,274.835777 375.27013,275.130016 C375.27013,275.424238 375.031587,275.662764 374.737365,275.662764 M373.118814,273.663998 C372.956817,273.663998 372.825537,273.5327 372.825537,273.37072 C372.825537,273.208741 372.956817,273.077461 373.118814,273.077461 C373.280776,273.077461 373.412056,273.208741 373.412056,273.37072 C373.412056,273.5327 373.280776,273.663998 373.118814,273.663998 M373.118814,279.635809 C372.956817,279.635809 372.825537,279.504511 372.825537,279.342531 C372.825537,279.180569 372.956817,279.049272 373.118814,279.049272 C373.280776,279.049272 373.412056,279.180569 373.412056,279.342531 C373.412056,279.504511 373.280776,279.635809 373.118814,279.635809 M372.072106,277.091717 C371.655997,277.091717 371.318674,276.754394 371.318674,276.338285 C371.318674,275.922176 371.655997,275.584853 372.072106,275.584853 C372.488214,275.584853 372.825537,275.922176 372.825537,276.338285 C372.825537,276.754394 372.488214,277.091717 372.072106,277.091717 M371.556413,280.755776 C371.262157,280.755776 371.023648,280.517267 371.023648,280.22301 C371.023648,279.928789 371.262157,279.690262 371.556413,279.690262 C371.850652,279.690262 372.089161,279.928789 372.089161,280.22301 C372.089161,280.517267 371.850652,280.755776 371.556413,280.755776 M370.168569,272.986308 C369.523188,272.986308 368.999991,272.463111 368.999991,271.817747 C368.999991,271.172366 369.523188,270.649168 370.168569,270.649168 C370.813967,270.649168 371.337146,271.172366 371.337146,271.817747 C371.337146,272.463111 370.813967,272.986308 370.168569,272.986308 M370.490901,282.161866 C370.328921,282.161866 370.197641,282.030568 370.197641,281.868606 C370.197641,281.706644 370.328921,281.575329 370.490901,281.575329 C370.652863,281.575329 370.78416,281.706644 370.78416,281.868606 C370.78416,282.030568 370.652863,282.161866 370.490901,282.161866 M369.635804,275.442081 C369.341582,275.442081 369.103056,275.203572 369.103056,274.909333 C369.103056,274.615093 369.341582,274.376567 369.635804,274.376567 C369.93006,274.376567 370.168569,274.615093 370.168569,274.909333 C370.168569,275.203572 369.93006,275.442081 369.635804,275.442081 M368.246578,280.38924 C367.830452,280.38924 367.493146,280.051917 367.493146,279.635809 C367.493146,279.2197 367.830452,278.882377 368.246578,278.882377 C368.662686,278.882377 368.999991,279.2197 368.999991,279.635809 C368.999991,280.051917 368.662686,280.38924 368.246578,280.38924 M366.496834,273.152293 C366.080743,273.152293 365.74342,272.814987 365.74342,272.398879 C365.74342,271.98277 366.080743,271.645429 366.496834,271.645429 C366.912942,271.645429 367.250265,271.98277 367.250265,272.398879 C367.250265,272.814987 366.912942,273.152293 366.496834,273.152293 M366.957005,274.669844 C366.795043,274.669844 366.663728,274.538547 366.663728,274.376567 C366.663728,274.214605 366.795043,274.083307 366.957005,274.083307 C367.118967,274.083307 367.250265,274.214605 367.250265,274.376567 C367.250265,274.538547 367.118967,274.669844 366.957005,274.669844 M364.589798,277.921993 C363.944417,277.921993 363.421256,277.398813 363.421256,276.753432 C363.421256,276.10805 363.944417,275.584853 364.589798,275.584853 C365.235197,275.584853 365.758358,276.10805 365.758358,276.753432 C365.758358,277.398813 365.235197,277.921993 364.589798,277.921993 M365.465099,280.222346 C365.303154,280.222346 365.171839,280.091048 365.171839,279.929086 C365.171839,279.767106 365.303154,279.635809 365.465099,279.635809 C365.627061,279.635809 365.758358,279.767106 365.758358,279.929086 C365.758358,280.091048 365.627061,280.222346 365.465099,280.222346 M363.127979,273.663998 C363.127979,273.502036 363.259276,273.37072 363.421256,273.37072 C363.5832,273.37072 363.714515,273.502036 363.714515,273.663998 C363.714515,273.82596 363.5832,273.957257 363.421256,273.957257 C363.259276,273.957257 363.127979,273.82596 363.127979,273.663998 M368.246578,276.79844 C368.408522,276.79844 368.539837,276.929755 368.539837,277.091717 C368.539837,277.253679 368.408522,277.384994 368.246578,277.384994 C368.084616,277.384994 367.9533,277.253679 367.9533,277.091717 C367.9533,276.929755 368.084616,276.79844 368.246578,276.79844 M380.14067,275.140652 C379.983239,275.140652 379.837597,275.186097 379.710708,275.26002 L379.710708,275.255962 C379.297241,275.494908 378.149199,276.342658 376.618984,275.267209 C376.585766,274.917432 376.527884,274.575018 376.449203,274.240564 C377.065582,273.991525 377.621174,274.201538 377.8604,274.265735 L377.85963,274.262849 C377.96413,274.291274 378.076501,274.295857 378.188662,274.265805 C378.526684,274.17523 378.727287,273.827779 378.636711,273.489721 C378.546118,273.151698 378.198667,272.951096 377.860627,273.041671 C377.748501,273.071723 377.65343,273.131862 377.577164,273.208741 L377.576411,273.205855 C377.40161,273.380761 377.026294,273.839166 376.369928,273.932716 C376.26291,273.550455 376.127116,273.180438 375.96477,272.824853 C376.752276,271.128652 378.170242,271.288795 378.647766,271.288987 L378.645755,271.285489 C378.792586,271.286049 378.941411,271.252586 379.077746,271.173852 C379.488764,270.936568 379.629613,270.41101 379.392312,270 C379.15501,269.588973 378.629452,269.448159 378.218451,269.685461 C378.082081,269.764176 377.978701,269.87632 377.905775,270.003787 L377.903711,270.000289 C377.665063,270.414053 377.094514,271.722781 375.23051,271.555764 C374.73775,270.866179 374.133826,270.262255 373.444207,269.769477 C373.277207,267.905471 374.585951,267.33494 374.999698,267.096256 L374.996217,267.094227 C375.123667,267.021301 375.23581,266.917904 375.314526,266.781551 C375.551827,266.370532 375.411014,265.844991 375.000013,265.607672 C374.589012,265.370371 374.063437,265.511202 373.826118,265.92222 C373.747402,266.058573 373.713939,266.207381 373.714499,266.354247 L373.710983,266.352218 C373.711176,266.829742 373.871318,268.247745 372.175118,269.035234 C371.900541,268.909831 371.617864,268.799297 371.327036,268.706587 C370.997707,267.547752 371.742864,266.942603 371.976947,266.705494 L371.974061,266.704742 C372.050415,266.62795 372.109924,266.532512 372.139224,266.420158 C372.22749,266.081523 372.024561,265.735419 371.685927,265.647135 C371.347275,265.558833 371.001206,265.761798 370.912887,266.100432 C370.883587,266.212786 370.888922,266.32514 370.918064,266.429429 L370.915161,266.42866 C371.003777,266.750082 371.358977,267.642876 370.50388,268.493845 C370.251098,268.443484 369.993855,268.405788 369.732799,268.381002 C368.657333,266.850786 369.505083,265.702743 369.744029,265.289276 L369.739988,265.289276 C369.813911,265.162369 369.859321,265.016762 369.859321,264.859313 C369.859321,264.384727 369.474594,264 369,264 C368.525388,264 368.140679,264.384727 368.140679,264.859313 C368.140679,265.016762 368.186089,265.162369 368.260012,265.289276 L368.255971,265.289276 C368.494917,265.702743 369.342684,266.850786 368.267201,268.381002 C367.402886,268.463111 366.581252,268.689829 365.824864,269.035234 C364.128682,268.247745 364.288824,266.829742 364.288999,266.352218 L364.285483,266.354247 C364.286043,266.207398 364.25258,266.058573 364.173865,265.92222 C363.936563,265.511202 363.411005,265.370371 362.999987,265.607672 C362.588986,265.844991 362.448173,266.370532 362.685474,266.781551 C362.764172,266.917904 362.876333,267.021284 363.003783,267.094227 L363.000302,267.096256 C363.414031,267.33494 364.722793,267.905471 364.555776,269.769477 C363.866174,270.262255 363.26225,270.866179 362.76949,271.555764 C360.905486,271.722781 360.334937,270.414053 360.096254,270.000289 L360.094225,270.003787 C360.021299,269.87632 359.917919,269.764176 359.781549,269.685461 C359.370548,269.448159 358.844972,269.588973 358.607688,270 C358.370387,270.41101 358.511236,270.936568 358.922219,271.173852 C359.058572,271.252586 359.207414,271.286049 359.354245,271.285489 L359.352234,271.288987 C359.829758,271.288795 361.247741,271.128652 362.03523,272.824871 C361.867671,273.191843 361.728187,273.574122 361.619647,273.96945 C360.963648,273.875725 360.588454,273.417547 360.413705,273.242676 L360.412953,273.245562 C360.336669,273.168683 360.24165,273.108545 360.129472,273.078493 C359.791467,272.987917 359.443981,273.18852 359.353423,273.52656 C359.262848,273.8646 359.46345,274.212051 359.801473,274.302627 C359.913616,274.332679 360.026005,274.328113 360.130504,274.299671 L360.129734,274.302557 C360.3691,274.238325 360.925305,274.028014 361.542208,274.27784 C361.467988,274.600487 361.412992,274.930393 361.381016,275.267209 C359.850801,276.342658 358.702759,275.494908 358.289275,275.255962 L358.289275,275.26002 C358.162403,275.186097 358.016779,275.140652 357.859348,275.140652 C357.384745,275.140652 357,275.525397 357,276 C357,276.474586 357.384745,276.859331 357.859348,276.859331 C358.016779,276.859331 358.162403,276.813903 358.289275,276.73998 L358.289275,276.744021 C358.702759,276.505092 359.850801,275.657342 361.381016,276.732791 C361.463108,277.597089 361.689844,278.418759 362.03523,279.175129 C361.247741,280.87133 359.829758,280.71117 359.352234,280.710995 L359.354245,280.714511 C359.207397,280.713934 359.058572,280.747414 358.922219,280.82613 C358.511236,281.063414 358.370387,281.58899 358.607688,282 C358.844972,282.41101 359.370548,282.551841 359.781549,282.314539 C359.917919,282.235824 360.021299,282.123662 360.094225,281.996178 L360.096254,281.999711 C360.334937,281.585947 360.905486,280.277202 362.76949,280.444236 C362.949067,280.695567 363.142165,280.936507 363.350114,281.163908 C363.006039,282.193387 362.124931,282.327046 361.816996,282.408456 L361.819095,282.410572 C361.714315,282.437878 361.614556,282.489813 361.532202,282.571677 C361.284021,282.818372 361.282814,283.219595 361.529544,283.467794 C361.776238,283.715994 362.177461,283.717183 362.42566,283.470471 C362.507997,283.388624 362.560509,283.289162 362.588479,283.18454 L362.590578,283.186657 C362.673877,282.878931 362.812976,281.997437 363.846827,281.660132 C364.070992,281.864338 364.308468,282.05378 364.555776,282.230506 C364.722793,284.094494 363.414031,284.66506 363.000302,284.903726 L363.003783,284.905738 C362.876333,284.978681 362.764172,285.082061 362.685474,285.218432 C362.448173,285.629433 362.588986,286.155009 362.999987,286.39231 C363.411005,286.629594 363.936563,286.488781 364.173865,286.077762 C364.25258,285.941409 364.286043,285.792602 364.285483,285.645736 L364.288999,285.647765 C364.288824,285.17024 364.128682,283.752238 365.824864,282.964766 C366.581252,283.310153 367.402886,283.536889 368.267201,283.618998 C369.342684,285.149197 368.494917,286.297239 368.255971,286.710707 L368.259994,286.710707 C368.186089,286.837614 368.140679,286.98322 368.140679,287.140669 C368.140679,287.615273 368.525388,288 369,288 C369.474594,288 369.859321,287.615273 369.859321,287.140669 C369.859321,286.98322 369.813911,286.837614 369.739988,286.710707 L369.744029,286.710707 C369.505083,286.297239 368.657333,285.149197 369.732799,283.618998 C370.597114,283.536889 371.418748,283.310153 372.175118,282.964766 C373.871318,283.752238 373.711176,285.17024 373.710983,285.647765 L373.714499,285.645736 C373.713939,285.792602 373.747402,285.941409 373.826118,286.077762 C374.063437,286.488781 374.589012,286.629594 375.000013,286.39231 C375.411014,286.155009 375.551827,285.629433 375.314526,285.218432 C375.23581,285.082061 375.123667,284.978681 374.996182,284.905738 L374.999698,284.903726 C374.585951,284.66506 373.277207,284.094494 373.444207,282.230506 C374.133826,281.737745 374.73775,281.133821 375.23051,280.444236 C377.094514,280.277202 377.665063,281.585947 377.903711,281.999711 L377.905775,281.996178 C377.978701,282.123662 378.082081,282.235806 378.218451,282.314539 C378.629452,282.551841 379.15501,282.41101 379.392312,282 C379.629613,281.58899 379.488764,281.063414 379.077746,280.82613 C378.941411,280.747414 378.792586,280.713934 378.645755,280.714511 L378.647766,280.710995 C378.170242,280.71117 376.752241,280.87133 375.96477,279.175129 C376.107175,278.863275 376.229866,278.540716 376.329923,278.208098 C377.016936,278.284995 377.407155,278.761295 377.586277,278.940557 L377.587047,278.937688 C377.663331,279.014549 377.75835,279.074706 377.870511,279.10474 C378.208533,279.195316 378.556001,278.994713 378.646577,278.656673 C378.737152,278.31865 378.536532,277.971181 378.19851,277.880623 C378.086384,277.850554 377.973995,277.855137 377.869496,277.883562 L377.870283,277.880676 C377.62595,277.946255 377.051483,278.163038 376.419396,277.88839 C376.514555,277.513476 376.581498,277.127454 376.618984,276.732791 C378.149199,275.657342 379.297241,276.505092 379.710708,276.744021 L379.710708,276.73998 C379.837597,276.813903 379.983239,276.859331 380.14067,276.859331 C380.615238,276.859331 381,276.474586 381,276 C381,275.525397 380.615238,275.140652 380.14067,275.140652" id="Fill-1"></path>
        </g>
    </g>
</svg>